<?xml version="1.0" encoding="UTF-8" standalone="no"?>
<!-- Created with Inkscape (http://www.inkscape.org/) -->

<svg
   width="16.886387mm"
   height="16.304474mm"
   viewBox="0 0 16.886387 16.304473"
   version="1.1"
   id="svg5"
   inkscape:version="1.1.1 (3bf5ae0d25, 2021-09-20)"
   sodipodi:docname="icon_speed.svg"
   xmlns:inkscape="http://www.inkscape.org/namespaces/inkscape"
   xmlns:sodipodi="http://sodipodi.sourceforge.net/DTD/sodipodi-0.dtd"
   xmlns="http://www.w3.org/2000/svg"
   xmlns:svg="http://www.w3.org/2000/svg">
  <sodipodi:namedview
     id="namedview7"
     pagecolor="#505050"
     bordercolor="#eeeeee"
     borderopacity="1"
     inkscape:pageshadow="0"
     inkscape:pageopacity="0"
     inkscape:pagecheckerboard="0"
     inkscape:document-units="mm"
     showgrid="false"
     inkscape:zoom="12.443434"
     inkscape:cx="18.644371"
     inkscape:cy="32.949103"
     inkscape:window-width="2562"
     inkscape:window-height="1442"
     inkscape:window-x="-11"
     inkscape:window-y="-11"
     inkscape:window-maximized="1"
     inkscape:current-layer="layer1" />
  <defs
     id="defs2" />
  <g
     inkscape:label="Layer 1"
     inkscape:groupmode="layer"
     id="layer1"
     transform="translate(-0.87627065,-1.0337627)">
    <path
       style="fill:#cccccc;stroke-width:0.0330271"
       d="m 10.506925,17.314421 c -0.287698,-0.07262 -0.5716844,-0.280068 -0.7258571,-0.530238 -0.079079,-0.12832 -0.1574857,-0.420304 -0.1574857,-0.586476 0,-0.118894 0.4883458,-3.365078 0.5457058,-3.627467 0.0126,-0.05763 -0.152683,-0.247631 -0.8475329,-0.974302 -0.4747502,-0.496492 -0.8797219,-0.905443 -0.8999373,-0.90878 -0.020216,-0.0033 -0.4974846,0.489975 -1.0605981,1.096246 -0.5631135,0.606272 -1.0721499,1.126164 -1.131192,1.155317 -0.095859,0.04733 -0.3379991,0.05195 -2.2623621,0.04319 l -2.155013,-0.0098 -0.1973288,-0.07946 C 1.2269765,12.736259 0.92426365,12.335536 0.88150336,11.921229 0.83109216,11.432791 1.1495359,10.931867 1.637427,10.732134 1.8070553,10.662691 1.8608436,10.660075 3.3213219,10.65022 L 4.8299912,10.640041 7.0286234,8.1829146 C 8.2378712,6.8314958 9.2272559,5.7176493 9.2272559,5.7076981 c 0,-0.00995 -0.1465745,-0.018091 -0.3257227,-0.018091 H 8.5758104 L 7.5648729,6.7595891 C 6.8338571,7.5333003 6.5144896,7.8486662 6.4114751,7.8985346 5.9825461,8.1061759 5.4968586,8.0195034 5.2000935,7.6823602 5.0279426,7.4867872 4.9560573,7.2661527 4.9720831,6.9825367 4.9965205,6.550053 5.0065713,6.5378899 6.562984,5.0573236 7.333001,4.3248316 8.00526,3.7113772 8.0665331,3.6852958 8.1588685,3.6459928 8.4591582,3.63988 9.8665158,3.6486603 c 1.6668622,0.010398 1.6916152,0.011522 1.8753672,0.085458 0.202103,0.081314 0.177073,0.060001 1.498177,1.2757611 1.074906,0.9891954 1.00953,0.932193 1.100802,0.9598148 0.06768,0.020483 0.183145,-0.081872 0.957789,-0.8490569 0.516606,-0.5116328 0.931247,-0.8955525 1.002762,-0.9284669 0.68656,-0.3159875 1.462347,0.1721628 1.461243,0.9194606 -6.24e-4,0.4208523 0.01329,0.403228 -1.543191,1.9548758 -1.318106,1.3140143 -1.404902,1.3937577 -1.592264,1.4629069 -0.248911,0.091865 -0.554637,0.079793 -0.776138,-0.030646 -0.09614,-0.047936 -0.405276,-0.3295662 -0.875461,-0.7975707 l -0.726837,-0.7234695 -0.965787,0.9662022 -0.965786,0.9662022 1.224564,1.2218191 c 0.67351,0.672 1.238388,1.256545 1.255283,1.298989 0.02286,0.05744 -0.08315,0.690867 -0.414553,2.47704 -0.2449,1.319928 -0.469715,2.48161 -0.499588,2.581518 -0.111308,0.372252 -0.288275,0.582635 -0.62349,0.741217 -0.209235,0.09898 -0.544288,0.136256 -0.752483,0.08371 z M 13.918286,4.4821176 c -0.32107,-0.069605 -0.612866,-0.2315532 -0.859267,-0.4768972 -0.698006,-0.6950115 -0.699745,-1.7517097 -0.004,-2.4474281 0.698555,-0.69855415 1.752627,-0.69872504 2.450217,-3.994e-4 0.699414,0.7001516 0.690101,1.7664172 -0.02153,2.4643384 -0.238047,0.233463 -0.535494,0.3938484 -0.856484,0.4618193 -0.280608,0.05942 -0.429597,0.059118 -0.708915,-0.00144 z"
       id="path21" />
  </g>
</svg>
