<?xml version="1.0" encoding="UTF-8" standalone="no"?>
<!-- Created with Inkscape (http://www.inkscape.org/) -->

<svg
   width="16.866718mm"
   height="16.864134mm"
   viewBox="0 0 16.866718 16.864134"
   version="1.1"
   id="svg193"
   inkscape:version="1.1.1 (3bf5ae0d25, 2021-09-20)"
   sodipodi:docname="status_icon.svg"
   xmlns:inkscape="http://www.inkscape.org/namespaces/inkscape"
   xmlns:sodipodi="http://sodipodi.sourceforge.net/DTD/sodipodi-0.dtd"
   xmlns="http://www.w3.org/2000/svg"
   xmlns:svg="http://www.w3.org/2000/svg">
  <sodipodi:namedview
     id="namedview195"
     pagecolor="#505050"
     bordercolor="#eeeeee"
     borderopacity="1"
     inkscape:pageshadow="0"
     inkscape:pageopacity="0"
     inkscape:pagecheckerboard="0"
     inkscape:document-units="mm"
     showgrid="false"
     fit-margin-top="0"
     fit-margin-left="0"
     fit-margin-right="0"
     fit-margin-bottom="0"
     inkscape:zoom="8.7988368"
     inkscape:cx="29.208406"
     inkscape:cy="21.366461"
     inkscape:window-width="2560"
     inkscape:window-height="1406"
     inkscape:window-x="-11"
     inkscape:window-y="-11"
     inkscape:window-maximized="1"
     inkscape:current-layer="layer1" />
  <defs
     id="defs190" />
  <g
     inkscape:label="Layer 1"
     inkscape:groupmode="layer"
     id="layer1">
    <path
       style="fill:#cccccc;stroke-width:0.0439941"
       d="m 0.97601169,16.79139 c -0.317198,-0.111734 -0.560624,-0.291107 -0.718478,-0.529422 -0.269996,-0.40762 -0.266123,-0.350836 -0.252755,-3.705903 l 0.01217,-3.053317 0.115257,-0.245773 c 0.140371,-0.299327 0.36201,-0.528276 0.66711,-0.689108 L 1.0288147,8.446887 h 1.077858 1.077857 l 0.276968,0.150178 c 0.288871,0.156632 0.453187,0.329728 0.630058,0.663714 l 0.104841,0.197973 v 3.167582 3.167582 l -0.115256,0.245773 c -0.146504,0.312403 -0.38243,0.548327 -0.694832,0.69483 -0.238938,0.112053 -0.272688,0.115566 -1.213644,0.126358 -0.844219,0.0097 -0.997101,8.31e-4 -1.19665001,-0.06949 z m 6.33516361,0 C 6.8960033,16.645144 6.6807037,16.454394 6.4569117,16.034535 L 6.3521087,15.83791 v -5.301301 -5.3013 l 0.150316,-0.277224 c 0.166956,-0.307914 0.30399,-0.440482 0.6368516,-0.616094 l 0.224699,-0.118547 h 1.077858 1.077857 l 0.229499,0.12098 c 0.3050987,0.160831 0.5267397,0.38978 0.6671117,0.689108 l 0.115257,0.245772 v 5.257305 5.257307 l -0.115257,0.245773 c -0.146504,0.312403 -0.38243,0.548327 -0.6948317,0.69483 -0.238939,0.112053 -0.272688,0.115566 -1.213646,0.126358 -0.844218,0.0097 -0.9971,8.31e-4 -1.196648,-0.06949 z m 6.3351637,0 C 13.329142,16.679656 13.085715,16.500283 12.927862,16.261968 12.64758,15.838819 12.66312,16.327468 12.67576,8.334873 L 12.68727,1.055861 12.802526,0.810088 C 12.94903,0.497686 13.184954,0.26176 13.497358,0.115257 13.740673,0.001153 13.75347,0 14.776994,0 c 1.023525,0 1.03632,0.0012 1.279635,0.115257 0.312404,0.146503 0.54833,0.382429 0.694832,0.694831 l 0.115257,0.245773 v 7.369027 7.369028 l -0.115257,0.245773 c -0.146502,0.312403 -0.382428,0.548327 -0.694832,0.69483 -0.238937,0.112053 -0.272686,0.115566 -1.213644,0.126358 -0.844218,0.0097 -0.9971,8.31e-4 -1.19665,-0.06949 z"
       id="path227" />
  </g>
</svg>
